<?xml version="1.0" encoding="UTF-8" standalone="no"?>
<svg
   xmlns:dc="http://purl.org/dc/elements/1.1/"
   xmlns:cc="http://creativecommons.org/ns#"
   xmlns:rdf="http://www.w3.org/1999/02/22-rdf-syntax-ns#"
   xmlns:svg="http://www.w3.org/2000/svg"
   xmlns="http://www.w3.org/2000/svg"
   xmlns:sodipodi="http://sodipodi.sourceforge.net/DTD/sodipodi-0.dtd"
   xmlns:inkscape="http://www.inkscape.org/namespaces/inkscape"
   version="1.1"
   id="svg2"
   xml:space="preserve"
   width="479.69333"
   height="101.33333"
   viewBox="0 0 479.69333 101.33333"
   sodipodi:docname="the-vector-converter-1250-lDTPlarXobVsgUXG.eps"><metadata
     id="metadata8"><rdf:RDF><cc:Work
         rdf:about=""><dc:format>image/svg+xml</dc:format><dc:type
           rdf:resource="http://purl.org/dc/dcmitype/StillImage" /></cc:Work></rdf:RDF></metadata><defs
     id="defs6" /><sodipodi:namedview
     pagecolor="#ffffff"
     bordercolor="#666666"
     borderopacity="1"
     objecttolerance="10"
     gridtolerance="10"
     guidetolerance="10"
     inkscape:pageopacity="0"
     inkscape:pageshadow="2"
     inkscape:window-width="640"
     inkscape:window-height="480"
     id="namedview4" /><g
     id="g10"
     inkscape:groupmode="layer"
     inkscape:label="ink_ext_XXXXXX"
     transform="matrix(1.3333333,0,0,-1.3333333,0,101.33333)"><g
       id="g12"
       transform="scale(0.1)"><path
         d="m 284.027,572.852 h 214.696 l -33.25,-127.301 c -5.078,-17.738 -14.582,-31.988 -28.5,-42.746 -13.938,-10.785 -30.09,-16.157 -48.45,-16.157 h -99.746 c -22.808,0 -42.922,-6.648 -60.332,-19.949 -17.425,-13.301 -29.609,-31.347 -36.578,-54.148 -4.433,-17.102 -4.906,-33.254 -1.422,-48.449 3.481,-15.207 9.653,-28.672 18.528,-40.372 8.863,-11.726 20.257,-21.074 34.199,-28.039 13.926,-6.968 29.125,-10.437 45.605,-10.437 h 60.797 c 11.395,0 20.739,-4.609 28.024,-13.777 7.273,-9.192 9.34,-19.473 6.179,-30.872 L 345.773,0 h -66.5 C 233.676,0 191.707,9.98047 153.402,29.9219 115.07,49.8711 83.2461,76.3086 57.9219,109.246 c -25.336,32.922 -42.6016,70.449 -51.77346,112.57 -9.1875,42.122 -8.07422,85.34 3.32031,129.684 l 3.80465,14.254 c 8.2227,30.394 21.0508,58.422 38.4727,84.07 17.418,25.656 37.9961,47.5 61.7459,65.551 23.75,18.055 50.192,32.137 79.328,42.27 29.125,10.128 59.528,15.207 91.207,15.207"
         style="fill:#f25729;fill-opacity:1;fill-rule:nonzero;stroke:none"
         id="path14" /><path
         d="m 392.316,0 187.149,701.105 c 5.058,17.719 14.562,31.973 28.504,42.747 13.918,10.761 30.066,16.148 48.449,16.148 h 198.547 c 45.598,0 87.547,-9.977 125.875,-29.926 38.31,-19.945 70.13,-46.402 95.48,-79.32 25.32,-32.941 42.75,-70.473 52.25,-112.578 9.49,-42.129 8.22,-85.356 -3.81,-129.676 l -3.8,-14.254 c -8.23,-30.394 -20.89,-58.422 -37.99,-84.07 -17.11,-25.656 -37.53,-47.664 -61.28,-66.028 -23.749,-18.378 -50.202,-32.625 -79.323,-42.753 -29.14,-10.133 -59.539,-15.204 -91.195,-15.204 H 679.219 l 34.199,128.258 c 5.059,17.106 14.559,31.024 28.5,41.801 13.922,10.762 30.07,16.148 48.445,16.148 h 55.106 c 22.797,0 43.219,6.965 61.273,20.903 18.051,13.922 29.926,31.972 35.625,54.148 4.418,15.821 4.899,31.352 1.426,46.551 -3.488,15.199 -9.668,28.645 -18.531,40.375 -8.871,11.711 -20.274,21.211 -34.196,28.5 -13.937,7.27 -29.132,10.926 -45.597,10.926 H 739.066 L 600.363,57.9492 C 595.285,40.8516 585.785,26.9141 571.863,16.1523 557.93,5.37109 542.09,0 524.363,0 H 392.316"
         style="fill:#f25729;fill-opacity:1;fill-rule:nonzero;stroke:none"
         id="path16" /><path
         d="m 1576.95,374.301 2.85,10.449 c 1.27,5.063 0.48,9.336 -2.37,12.824 -2.85,3.473 -6.81,5.231 -11.88,5.231 H 1256.8 c -13.29,0 -25.34,2.843 -36.1,8.547 -10.77,5.699 -19.63,13.136 -26.59,22.324 -6.98,9.172 -11.73,19.785 -14.25,31.82 -2.54,12.027 -2.23,24.375 0.94,37.055 l 19,72.199 h 418.01 c 25.96,0 49.71,-5.695 71.25,-17.105 21.52,-11.395 39.42,-26.282 53.67,-44.645 14.25,-18.375 24.06,-39.426 29.45,-63.176 5.38,-23.75 4.9,-48.301 -1.42,-73.625 L 1695.7,96.8945 C 1688.11,68.3984 1672.74,45.2734 1649.63,27.5508 1626.51,9.80469 1600.07,0.945313 1570.31,0.945313 L 1261.56,1.89453 c -27.25,0 -52.26,5.85938 -75.05,17.57817 -22.81,11.7109 -41.49,27.2265 -56.06,46.5507 -14.57,19.3086 -24.7,41.4766 -30.4,66.4966 -5.69,25.019 -5.06,50.507 1.9,76.484 l 3.8,14.25 c 4.43,17.715 11.88,34.187 22.33,49.391 10.45,15.207 22.64,28.175 36.58,38.957 13.92,10.761 29.45,19.152 46.54,25.171 17.1,6.008 35.16,9.028 54.16,9.028 h 259.35 l -19.01,-71.25 c -5.07,-17.11 -14.57,-31.035 -28.49,-41.797 -13.94,-10.781 -29.78,-16.152 -47.5,-16.152 H 1313.8 c -10.77,0 -17.73,-5.391 -20.9,-16.153 -1.89,-6.98 -0.63,-13.152 3.8,-18.523 4.43,-5.395 10.13,-8.078 17.1,-8.078 h 187.16 c 6.96,0 12.97,1.906 18.05,5.703 5.06,3.801 8.21,8.855 9.5,15.195 l 1.89,7.609 46.55,171.946"
         style="fill:#f25729;fill-opacity:1;fill-rule:nonzero;stroke:none"
         id="path18" /><path
         d="m 2129.86,572.852 c 46.21,0 88.49,-9.977 126.81,-29.926 38.33,-19.946 70.13,-46.403 95.49,-79.321 25.32,-32.945 42.58,-70.632 51.76,-113.054 9.18,-42.438 7.76,-85.832 -4.26,-130.153 l -47.5,-178.6011 c -3.19,-12.6758 -9.98,-22.793 -20.42,-30.4024 C 2321.28,3.80078 2309.71,0 2297.05,0 h -102.6 c -12.03,0 -21.53,4.57813 -28.49,13.7695 -6.99,9.1797 -8.89,19.4844 -5.71,30.8789 l 57,215.6446 c 4.43,15.828 4.9,31.355 1.42,46.559 -3.49,15.199 -9.66,28.644 -18.52,40.375 -8.87,11.711 -20.27,21.211 -34.19,28.5 -13.95,7.269 -29.16,10.921 -45.6,10.921 H 2013.95 L 1921.79,41.7969 c -3.16,-12.6758 -9.97,-22.793 -20.42,-30.4024 C 1890.93,3.80078 1879.05,0 1865.75,0 H 1764.1 c -11.4,0 -20.75,4.57813 -28.02,13.7695 -7.27,9.1797 -9.34,19.4844 -6.18,30.8789 l 140.6,528.2036 h 259.36"
         style="fill:#f25729;fill-opacity:1;fill-rule:nonzero;stroke:none"
         id="path20" /><path
         d="m 2689.39,391.875 c -7.59,-6.023 -12.99,-13.773 -16.15,-23.27 L 2630.5,207.102 c -2.54,-8.879 -0.95,-17.102 4.74,-24.7 5.71,-7.605 13.3,-11.406 22.81,-11.406 h 393.3 L 3020.95,57.9492 C 3015.87,40.8516 3006.37,26.9141 2992.45,16.1523 2978.5,5.37109 2962.66,0 2944.95,0 H 2586.8 c -25.98,0 -49.73,5.53516 -71.26,16.6211 -21.54,11.0742 -39.42,25.957 -53.67,44.6484 -14.25,18.6719 -24.08,39.9025 -29.45,63.6525 -5.37,23.75 -4.59,47.976 2.37,72.676 l 57.95,215.656 c 6.33,23.418 16.15,44.961 29.46,64.598 13.3,19.621 28.97,36.41 47.02,50.347 18.04,13.926 38.31,24.848 60.8,32.778 22.48,7.91 45.75,11.875 69.82,11.875 h 253.65 c 25.97,0 49.72,-5.704 71.25,-17.098 21.53,-11.402 39.43,-26.289 53.69,-44.649 14.24,-18.378 23.89,-39.589 28.96,-63.656 5.07,-24.074 4.43,-48.449 -1.89,-73.148 l -17.1,-64.606 c -7.6,-28.504 -22.96,-51.453 -46.08,-68.875 -23.12,-17.422 -49.25,-26.125 -78.38,-26.125 H 2677.05 L 2696.04,285 c 4.43,17.102 13.62,31.023 27.55,41.801 13.93,10.762 30.08,16.148 48.46,16.148 h 115.9 c 10.76,0 17.71,5.375 20.9,16.153 l 3.79,14.25 c 1.91,6.961 0.63,13.296 -3.79,19.003 -4.45,5.696 -10.14,8.543 -17.1,8.543 h -176.7 c -9.5,0 -18.06,-3.011 -25.66,-9.023"
         style="fill:#f25729;fill-opacity:1;fill-rule:nonzero;stroke:none"
         id="path22" /><path
         d="m 3050.38,0 190.95,717.25 c 3.16,12.664 9.98,22.949 20.43,30.875 10.45,7.91 22.32,11.875 35.62,11.875 h 101.65 c 12.02,0 21.68,-4.598 28.98,-13.773 7.27,-9.192 9.33,-19.481 6.17,-30.875 l -142.5,-529.161 c -6.97,-27.871 -18.22,-53.195 -33.73,-75.996 -15.52,-22.7927 -33.89,-42.2731 -55.1,-58.4177 C 3181.62,35.625 3158.05,22.9492 3132.08,13.7695 3106.1,4.57813 3078.88,0 3050.38,0"
         style="fill:#f25729;fill-opacity:1;fill-rule:nonzero;stroke:none"
         id="path24" /><path
         d="m 3521.13,695.992 h 9.39 c 4.63,0 8.36,1.199 11.17,3.61 2.81,2.402 4.22,5.461 4.22,9.168 0,4.351 -1.25,7.464 -3.74,9.351 -2.49,1.879 -6.44,2.82 -11.82,2.82 h -9.22 z m 37.74,13.129 c 0,-4.637 -1.24,-8.738 -3.71,-12.305 -2.46,-3.562 -5.92,-6.214 -10.39,-7.953 l 20.7,-34.347 h -14.6 l -18,30.781 h -11.74 v -30.781 h -12.87 v 77.472 h 22.7 c 9.61,0 16.67,-1.886 21.17,-5.656 4.49,-3.762 6.74,-9.504 6.74,-17.211 z m -82.78,-15.824 c 0,-10.031 2.52,-19.406 7.56,-28.125 5.05,-8.727 11.93,-15.598 20.65,-20.606 8.73,-5.015 18.07,-7.519 28.04,-7.519 10.09,0 19.46,2.519 28.09,7.562 8.63,5.043 15.49,11.868 20.56,20.473 5.07,8.609 7.61,18.008 7.61,28.215 0,10.082 -2.53,19.445 -7.57,28.082 -5.04,8.637 -11.86,15.492 -20.48,20.566 -8.6,5.067 -18,7.606 -28.21,7.606 -10.09,0 -19.44,-2.524 -28.07,-7.567 -8.65,-5.039 -15.5,-11.867 -20.57,-20.476 -5.07,-8.606 -7.61,-18.012 -7.61,-28.211 z m -9.13,0 c 0,11.59 2.9,22.461 8.7,32.601 5.79,10.141 13.76,18.145 23.91,24 10.14,5.856 21.06,8.778 32.77,8.778 11.59,0 22.46,-2.899 32.61,-8.696 10.14,-5.796 18.14,-13.765 23.99,-23.906 5.85,-10.14 8.78,-21.07 8.78,-32.777 0,-11.422 -2.8,-22.141 -8.42,-32.168 -5.63,-10.031 -13.51,-18.059 -23.66,-24.082 -10.14,-6.031 -21.24,-9.043 -33.3,-9.043 -11.99,0 -23.06,2.996 -33.21,9 -10.14,5.992 -18.04,14.008 -23.69,24.035 -5.65,10.027 -8.48,20.781 -8.48,32.258"
         style="fill:#f25729;fill-opacity:1;fill-rule:nonzero;stroke:none"
         id="path26" /></g></g></svg>
